# xmcd CD database file
#
# Track frame offsets:
#	150
#	17385
#	42285
#	60152
#	84396
#	101025
#	117848
#	137656
#	150016
#	166114
#	182764
#	209793
#	231450
#	251986
#	274452
#
# Disc length: 3747 seconds
#
# Revision: 0
# Processed by: cddbd v1.5.2PL0 Copyright (c) Steve Scherf et al.
# Submitted via: CDex 1.51
#
DISCID=c60ea10f
DTITLE=Bucky and John Pizzarelli - Generations
DYEAR=2007
DGENRE=Jazz
TTITLE0=Fred
TTITLE1=Polka Dots And Moon Beams
TTITLE2=Rose Room
TTITLE3=Midnight Sun
TTITLE4=A Sleepin' Bee
TTITLE5=At Sundown
TTITLE6=I'll Remember April
TTITLE7=The Second Movement Of Sonatina
TTITLE8=Darn That Dream
TTITLE9=Avalon
TTITLE10=Early Autumn
TTITLE11=Graham Avenue Stroll
TTITLE12=How Long Has This Been Going On
TTITLE13=The Way You Look Tonight
TTITLE14=Variations And Fugue #9 on La Folia
EXTD=YEAR: 2007
EXTT0=
EXTT1=
EXTT2=
EXTT3=
EXTT4=
EXTT5=
EXTT6=
EXTT7=
EXTT8=
EXTT9=
EXTT10=
EXTT11=
EXTT12=
EXTT13=
EXTT14=
PLAYORDER=
